<?xml version="1.0" ?><!DOCTYPE svg  PUBLIC '-//W3C//DTD SVG 1.1//EN'  'http://www.w3.org/Graphics/SVG/1.1/DTD/svg11.dtd'><svg fill-rule="evenodd" height="75pt" overflow="visible" stroke-linejoin="bevel" stroke-width="0.501" version="1.1" viewBox="0 0 75 75" width="75pt" xmlns="http://www.w3.org/2000/svg" xmlns:xlink="http://www.w3.org/1999/xlink"><defs/><g fill="none" font-family="Times New Roman" font-size="16" id="Document" stroke="black" transform="scale(1 -1)"><g id="Spread" transform="translate(0 -75)"><g id="Layer 1"><path d="M 38.143,2.807 C 37.678,3.031 37.494,3.579 37.693,4.028 L 37.728,4.095 L 37.745,4.135 C 37.796,4.269 37.923,4.646 38.159,5.451 C 38.377,6.197 38.643,7.158 38.915,8.189 C 39.392,10.002 39.877,11.999 40.147,13.42 L 40.242,13.953 L 40.259,14.253 C 40.355,16.136 40.397,19.508 40.184,22.798 C 40.07,24.552 39.885,26.261 39.603,27.697 C 39.44,28.524 39.253,29.218 39.049,29.766 C 37.711,26.1 36.6,20.291 35.634,17.891 C 33.502,12.609 26.797,7.774 20.404,10.924 C 16.683,12.757 16.096,16.447 16.685,19.33 L 16.994,20.427 L 16.928,20.427 C 15.459,20.415 14.011,20.491 12.346,21.243 C 5.625,24.282 5.592,31.761 10.155,36.03 C 12.252,37.988 15.599,38.705 18.784,38.989 C 21.91,39.266 25.203,39.143 27.407,39.173 C 27.605,39.272 27.839,39.302 28.07,39.241 C 28.641,39.089 29.008,39.101 29.233,39.15 L 29.45,39.229 L 29.033,39.706 C 26.428,42.258 21.472,41.26 17.313,41.869 C 15.692,42.106 11.041,42.798 9.398,44.271 C 6.876,46.534 6.234,48.813 7.036,50.98 C 7.772,52.971 9.658,54.624 11.494,55.952 C 12.089,56.384 12.874,56.631 13.637,56.792 L 14.308,56.907 L 13.817,58.257 C 12.983,61.315 13.43,65.283 15.399,67.12 C 19.803,71.242 26.08,68.123 29.525,64.202 C 31.751,61.669 33.775,57.11 34.957,54.303 C 35.811,52.266 36.885,49.083 37.548,46.766 C 37.67,46.967 37.774,47.262 37.849,47.694 C 38.021,48.698 37.949,50.096 37.743,51.703 C 37.342,54.845 36.44,58.605 36.464,60.699 C 36.521,65.975 38.793,71.475 45.055,72.89 C 50.074,74.025 53.568,69.364 53.755,64.816 L 53.747,64.282 L 53.923,64.409 C 56.028,65.754 58.28,66.033 61.842,63.772 C 67.991,59.87 64.955,50.915 60.231,47.879 C 58.497,46.763 54.896,45.909 51.993,44.966 C 50.311,44.419 48.969,43.881 48.017,43.333 L 47.445,42.964 L 47.702,43.02 C 48.775,43.267 50.052,43.607 51.511,43.961 C 54.337,44.647 57.734,45.358 60.331,45.096 C 62.996,44.829 66.817,44.289 68.76,41.859 C 72.443,37.246 71.204,33.689 68.332,31.12 C 67.514,30.388 66.544,29.792 65.453,29.429 L 64.698,29.225 L 64.976,28.83 C 66.888,25.547 66.045,19.586 61.048,17.304 C 56.621,15.282 51.923,16.493 49.735,20.069 C 49.097,21.112 47.928,24.522 46.522,27.408 C 45.813,28.863 45.075,30.124 44.354,30.916 C 44.074,31.222 43.842,31.414 43.649,31.529 C 44.98,28.93 45.422,25.643 45.852,22.29 C 45.992,21.177 46.369,17.447 46.492,13.426 C 46.612,9.492 46.505,5.013 45.546,2.555 C 45.431,2.26 45.175,2.043 44.865,1.978 C 42.941,1.574 40.477,1.678 38.143,2.807 Z M 43.869,3.709 L 43.964,3.725 L 44.061,4.069 C 44.611,6.214 44.729,9.707 44.618,13.369 C 44.497,17.324 44.126,20.995 43.991,22.053 C 43.479,26.063 42.997,29.215 41.514,31.481 C 41.269,31.855 41.326,32.34 41.626,32.648 C 41.679,32.933 41.864,33.189 42.147,33.323 C 43.589,34.004 44.87,33.133 45.74,32.178 C 46.65,31.179 47.483,29.716 48.207,28.229 C 49.709,25.149 50.809,21.906 51.334,21.048 C 52.94,18.424 56.542,17.307 60.269,19.009 C 65.652,21.468 64.439,28.572 61.794,29.154 C 61.553,29.206 61.376,29.321 61.255,29.47 C 59.842,30.016 58.418,30.775 57.143,31.352 C 56.672,31.565 56.462,32.121 56.675,32.593 C 56.888,33.064 57.444,33.274 57.916,33.061 C 59.49,32.349 61.215,31.403 62.76,30.93 C 64.456,30.837 65.931,31.489 67.083,32.517 C 69.271,34.475 70.299,36.927 67.295,40.688 C 65.924,42.404 62.971,42.948 60.144,43.231 C 57.913,43.456 54.822,42.835 51.953,42.139 C 48.32,41.258 46.471,40.686 45.444,40.867 C 45.334,40.887 45.205,40.92 45.075,40.979 C 44.672,41.16 44.45,41.598 44.543,42.029 C 45.073,44.508 48.681,45.861 51.413,46.749 C 54.467,47.742 57.793,48.54 59.218,49.456 C 63.314,52.089 65.345,59.329 60.837,62.189 C 57.364,64.393 55.793,63.69 53.649,61.865 C 53.616,61.677 53.528,61.499 53.384,61.357 C 52.889,60.87 52.605,60.5 52.354,60.11 C 52.082,59.689 51.835,59.219 51.442,58.572 C 51.174,58.129 50.597,57.988 50.155,58.256 C 49.712,58.524 49.571,59.101 49.839,59.543 C 50.216,60.167 50.472,60.652 50.778,61.126 C 50.987,61.451 51.215,61.764 51.509,62.101 C 51.514,62.186 51.531,62.275 51.562,62.365 C 52.952,66.423 49.824,72.047 45.468,71.061 C 40.416,69.92 38.392,65.524 38.339,60.678 C 38.318,58.815 39.163,55.389 39.603,51.941 C 39.812,50.309 39.92,48.675 39.697,47.377 C 39.476,46.09 38.845,44.775 37.302,44.512 C 37.199,44.494 37.098,44.494 37.004,44.509 C 36.56,44.478 36.145,44.766 36.031,45.211 C 35.459,47.431 34.189,51.288 33.228,53.576 C 32.022,56.443 30.106,60.702 28.116,62.965 C 24.795,66.745 19.803,68.674 16.68,65.751 C 15.013,64.195 14.839,59.613 16.231,57.235 C 17.666,56.864 19.133,55.893 20.06,55.077 C 20.449,54.735 20.486,54.142 20.144,53.754 C 19.802,53.365 19.209,53.328 18.821,53.67 C 18.377,54.061 17.796,54.482 17.179,54.825 C 16.815,55.027 16.457,55.192 16.12,55.31 C 16.072,55.293 16.022,55.28 15.971,55.271 C 14.333,54.981 13.251,54.911 12.595,54.435 C 10.77,53.114 9.317,51.744 8.794,50.33 C 8.337,49.092 8.515,47.583 10.651,45.666 C 11.677,44.746 15.347,44.051 17.584,43.724 C 22.091,43.065 27.95,44.386 31.041,40.248 L 31.09,40.177 C 31.509,39.54 31.484,38.766 31.045,38.17 C 30.425,37.329 29.236,37.078 27.908,37.353 C 27.816,37.321 27.717,37.302 27.614,37.301 C 25.246,37.259 22.077,37.4 18.951,37.121 C 15.802,36.841 13.033,36.152 11.436,34.661 C 7.665,31.132 7.788,25.362 13.119,22.952 C 14.653,22.258 15.861,22.289 17.61,22.314 C 18.385,23.585 19.456,24.964 20.597,25.894 C 20.998,26.221 21.589,26.161 21.916,25.76 C 22.243,25.359 22.183,24.768 21.782,24.441 C 20.907,23.728 20.021,22.625 19.334,21.537 C 19.368,21.337 19.338,21.123 19.226,20.924 C 17.963,18.684 17.705,14.344 21.233,12.605 C 26.258,10.129 31.989,13.87 33.895,18.592 C 34.855,20.976 36.199,28.135 37.822,31.731 C 38.035,32.203 38.591,32.413 39.062,32.2 C 39.074,32.194 39.087,32.188 39.089,32.171 C 39.437,32.329 39.829,32.199 40.06,31.883 C 40.722,30.972 41.148,29.558 41.443,28.059 C 41.746,26.512 41.938,24.716 42.055,22.919 C 42.289,19.326 42.225,15.645 42.11,13.782 C 42.108,13.751 42.105,13.718 42.1,13.687 C 41.851,12.175 41.275,9.788 40.728,7.711 C 40.453,6.667 40.182,5.69 39.959,4.925 C 39.906,4.746 39.855,4.572 39.805,4.409 L 39.73,4.169 L 40.407,3.95 C 41.618,3.618 42.819,3.572 43.869,3.709 Z" fill="#ffffff" fill-rule="evenodd" marker-end="none" marker-start="none" stroke="none" stroke-miterlimit="79.8403193612775" stroke-width="0.5"/></g></g></g></svg>